<?xml version="1.0" standalone="no"?>
<!DOCTYPE svg PUBLIC "-//W3C//DTD SVG 20010904//EN"
 "http://www.w3.org/TR/2001/REC-SVG-20010904/DTD/svg10.dtd">
<svg version="1.0" xmlns="http://www.w3.org/2000/svg"
 width="640.000000pt" height="640.000000pt" viewBox="0 0 640.000000 640.000000"
 preserveAspectRatio="xMidYMid meet">
<metadata>
Created by potrace 1.14, written by Peter Selinger 2001-2017
</metadata>
<g transform="translate(0.000000,640.000000) scale(0.100000,-0.100000)"
fill="#000000" stroke="none">
<path d="M1830 6369 c-124 -15 -256 -31 -295 -34 -38 -4 -81 -8 -95 -10 -133
-17 -152 -20 -295 -35 -55 -6 -116 -13 -135 -15 -84 -11 -210 -25 -265 -30
-33 -4 -71 -8 -85 -10 -14 -2 -49 -6 -78 -10 l-52 -7 0 -51 c0 -42 19 -97 104
-307 58 -140 211 -516 341 -835 129 -319 240 -589 245 -600 5 -11 44 -105 86
-210 42 -104 82 -203 89 -220 12 -27 58 -140 300 -735 37 -91 73 -178 80 -195
7 -16 61 -149 121 -295 59 -146 148 -366 199 -490 51 -124 145 -355 210 -515
65 -159 130 -319 145 -355 15 -36 151 -368 301 -737 l274 -673 63 0 63 0 31
68 c16 37 43 95 59 130 16 35 29 65 29 68 0 2 18 43 40 90 22 47 40 87 40 89
0 2 13 32 29 67 16 35 57 126 91 203 34 77 70 158 80 180 10 22 82 184 160
360 77 176 150 340 162 365 11 25 45 101 75 170 30 69 70 158 89 198 19 41 34
76 34 78 0 2 13 32 29 66 15 35 108 243 206 463 97 220 187 423 200 450 13 28
30 66 38 85 8 19 310 699 671 1510 599 1346 656 1479 656 1527 0 44 -3 53 -17
54 -10 0 -25 2 -33 3 -8 2 -42 6 -75 10 -33 4 -73 9 -90 11 -16 2 -93 11 -170
20 -77 8 -174 20 -215 25 -41 6 -96 12 -121 15 -25 2 -86 9 -135 15 -49 6
-109 13 -134 16 -25 3 -58 7 -75 9 -16 2 -57 6 -90 10 -33 3 -69 8 -80 10 -11
2 -56 7 -100 10 -44 4 -83 9 -87 11 -3 2 -48 7 -100 10 l-93 6 -69 -188 c-38
-104 -84 -232 -103 -284 -18 -52 -37 -104 -42 -115 -5 -11 -14 -33 -20 -50 -5
-16 -57 -158 -115 -315 -57 -157 -111 -304 -119 -325 -8 -22 -33 -92 -57 -155
-23 -63 -59 -162 -80 -220 -21 -58 -68 -186 -105 -285 -69 -187 -258 -702
-325 -885 -56 -155 -57 -157 -63 -140 -38 114 -102 306 -297 900 -128 388
-299 908 -381 1155 -81 248 -181 551 -222 675 l-73 225 -65 1 c-35 0 -165 -12
-289 -27z"/>
</g>
</svg>
